# AST/ASF file generated using VICON BodyLanguage
# -----------------------------------------------
:version 1.10
:name VICON
:units
  mass 1.0
  length 0.45
  angle deg
:documentation
   .ast/.asf automatically generated from VICON data using
   VICON BodyBuilder and BodyLanguage model FoxedUp or BRILLIANT.MOD
:root
   order TX TY TZ RX RY RZ
   axis XYZ
   position 0 0 0  
   orientation 0 -0 0 
:bonedata
  begin
     id 1 
     name lhipjoint
     direction 0.500677 -0.737119 0.453848 
     length 2.34727 
     axis 0 -0 0  XYZ
  end
  begin
     id 2 
     name lfemur
     direction 0.34202 -0.939693 0  
     length 7.53653  
     axis 0 -0 20  XYZ
    dof rx ry rz
    limits (-160.0 20.0)
           (-70.0 70.0)
           (-60.0 70.0)
  end
  begin
     id 3 
     name ltibia
     direction 0.34202 -0.939693 0   
     length 6.85572   
     axis 0 -0 20   XYZ
    dof rx
    limits (-10.0 170.0)
  end
  begin
     id 4 
     name lfoot
     direction 0.155313 -0.426718 0.890949   
     length 2.18324   
     axis -90 -1.13533e-015 20   XYZ
    dof rx rz
    limits (-45.0 90.0)
           (-70.0 20.0)
  end
  begin
     id 5 
     name ltoes
     direction 1.53474e-011 -4.21647e-011 1   
     length 1.06748   
     axis -90 -1.13533e-015 20   XYZ
    dof rx
    limits (-90.0 20.0)
  end
  begin
     id 6 
     name rhipjoint
     direction -0.632471 -0.659587 0.406111   
     length 2.62319  
     axis 0 -0 0  XYZ 
  end
  begin
     id 7 
     name rfemur
     direction -0.34202 -0.939693 0   
     length 7.21735   
     axis 0 -0 -20   XYZ
    dof rx ry rz
    limits (-160.0 20.0)
           (-70.0 70.0)
           (-70.0 60.0)
  end
  begin
     id 8 
     name rtibia
     direction -0.34202 -0.939693 0   
     length 7.02558   
     axis 0 -0 -20   XYZ
    dof rx
    limits (-10.0 170.0)
 end
 begin
     id 9 
     name rfoot
     direction -0.16057 -0.441164 0.882945   
     length 2.10014  
     axis -90 1.13533e-015 -20   XYZ
    dof rx rz
    limits (-45.0 90.0)
           (-20.0 70.0)
  end
  begin
     id 10 
     name rtoes
     direction -1.53553e-011 -4.2192e-011 1   
     length 1.02554   
     axis -90 1.13533e-015 -20   XYZ
    dof rx
    limits (-90.0 20.0)
  end
  begin
     id 11 
     name lowerback
     direction 0.0401429 0.998861 -0.0258085   
     length 1.80848   
     axis 0 -0 0   XYZ
    dof rx ry rz
    limits (-20.0 45.0)
           (-30.0 30.0)
           (-30.0 30.0)
  end
  begin
     id 12 
     name upperback
     direction -0.0130978 0.999914 -0.000352645   
     length 1.8116   
     axis 0 -0 0   XYZ
    dof rx ry rz
    limits (-20.0 45.0)
           (-30.0 30.0)
           (-30.0 30.0)
  end
  begin
     id 13 
     name thorax
     direction -0.0300198 0.999453 0.0138573   
     length 1.81778   
     axis 0 -0 0   XYZ
    dof rx ry rz
    limits (-20.0 45.0)
           (-30.0 30.0)
           (-30.0 30.0)
  end
  begin
     id 14 
     name lowerneck
     direction -0.0401726 0.999191 -0.00173647   
     length 2.10594   
     axis 0 -0 0   XYZ
    dof rx ry rz
    limits (-20.0 45.0)
           (-30.0 30.0)
           (-30.0 30.0)
  end
  begin
     id 15 
     name upperneck
     direction 0.0119835 0.998501 0.0534085   
     length 2.07325   
     axis 0 -0 0   XYZ
    dof rx ry rz
    limits (-20.0 45.0)
           (-30.0 30.0)
           (-30.0 30.0)
  end
  begin
     id 16
     name head
     direction 0.00628309 0.999826 0.0175921  
     length 2.15096  
     axis 0 -0 0   XYZ
    dof rx ry rz
    limits (-20.0 45.0)
           (-30.0 30.0)
           (-30.0 30.0)
  end
  begin
     id 17 
     name lclavicle
     direction 0.895501 0.429681 -0.115981  
     length 4.18092  
     axis 0 -0 0   XYZ
    dof ry rz
    limits (-20.0 10.0)
           (0.0 20.0)
  end
  begin
     id 18 
     name lhumerus
     direction 1 -4.48961e-011 -3.38433e-028   
     length 5.77237   
     axis 180 -30 -90   XYZ
    dof rx ry rz
    limits (-60.0 90.0)
           (-90.0 90.0)
           (-90.0 90.0)
  end
  begin
     id 19
     name lradius
     direction 1 -4.4901e-011 1.11983e-026   
     length 2.91878   
     axis 180 -30 -90   XYZ
    dof rx
    limits (-10.0 170.0)
  end
  begin
     id 20
     name lwrist
     direction 1 -4.48934e-011 1.88176e-026   
     length 1.45939   
     axis -1.23311e-014 90 90   XYZ
    dof ry
    limits (-180.0 0.0)
 end
  begin
     id 21 
     name lhand
     direction 1 -4.4895e-011 3.76352e-026   
     length 1.06566   
     axis -2.40147e-014 90 90   XYZ
    dof rx rz
    limits (-90.0 90.0)
           (-45.0 45.0)
  end
  begin
     id 22 
     name lfingers
     direction 1 -4.49005e-011 7.52705e-026   
     length 0.859162   
     axis -4.80295e-014 90 90   XYZ
    dof rx
    limits (0.0 90.0)
  end
  begin
     id 23
     name lthumb
     direction 0.707107 -6.34885e-011 0.707107   
     length 1.23359   
     axis -90 45 -9.86935e-015   XYZ
    dof rx rz
    limits (-45.0 45.0)
           (-45.0 45.0)
  end
  begin
     id 24 
     name rclavicle
     direction -0.91006 0.40451 -0.0903492   
     length 4.23293  
     axis 0 -0 0   XYZ 
    dof ry rz
    limits (-10.0 20.0)
           (-20.0 0.0)
  end
  begin
     id 25 
     name rhumerus
     direction -1 -4.4897e-011 1.7415e-027  
     length 5.49854   
     axis 180 30 90   XYZ
    dof rx ry rz
    limits (-90.0 60.0)
           (-90.0 90.0)
           (-90.0 90.0)
  end
  begin
     id 26 
     name rradius
     direction -1 -4.48963e-011 1.21259e-026   
     length 3.1186   
     axis 180 30 90   XYZ
    dof rx
    limits (-10.0 170.0)
  end
  begin
     id 27 
     name rwrist
     direction -1 -4.48967e-011 1.88176e-026   
     length 1.5593   
     axis -1.23311e-014 -90 -90   XYZ
    dof ry
    limits (-180.0 0.0)
  end
  begin
     id 28
     name rhand
     direction -1 -4.4895e-011 3.76352e-026   
     length 0.71207   
     axis -2.40147e-014 -90 -90   XYZ
    dof rx rz
    limits (-90.0 90.0)
           (-45.0 45.0)
  end
  begin
     id 29
     name rfingers
     direction -1 -4.49005e-011 7.52705e-026   
     length 0.574089   
     axis -4.80295e-014 -90 -90   XYZ
    dof rx
    limits (0.0 90.0)
  end
  begin
     id 30
     name rthumb
     direction -0.707107 -6.34982e-011 0.707107   
     length 0.824281   
     axis -90 -45 9.86935e-015   XYZ
    dof rx rz
    limits (-45.0 45.0)
           (-45.0 45.0)
  end
:hierarchy
  begin
    root lhipjoint rhipjoint lowerback
    lhipjoint lfemur
    lfemur ltibia
    ltibia lfoot
    lfoot ltoes
    rhipjoint rfemur
    rfemur rtibia
    rtibia rfoot
    rfoot rtoes
    lowerback upperback
    upperback thorax
    thorax lowerneck lclavicle rclavicle
    lowerneck upperneck
    upperneck head
    lclavicle lhumerus
    lhumerus lradius
    lradius lwrist
    lwrist lhand lthumb
    lhand lfingers
    rclavicle rhumerus
    rhumerus rradius
    rradius rwrist
    rwrist rhand rthumb
    rhand rfingers
  end

#!OML:ASF C:\ViconDB\ViconDB\414\Spring2016\042216\male.ASF
:FULLY-SPECIFIED
:DEGREES
353
root -4.94483 17.6312 8.72745 28.2872 84.3828 385.972
lowerback 0.30186 -3.76443 5.4641
upperback -1.48761 -4.89783 1.54745
thorax -2.02522 -2.50166 -1.33967
lowerneck -2.35242 7.33893 -2.51016
upperneck -3.27548 9.92949 2.51501
head -0.884139 4.98978 1.15733
rclavicle -4.68138e-014 1.11319e-014
rhumerus -38.391 -10.6947 -82.1204
rradius 32.0932
rwrist 28.3574
rhand 12.8928 -21.356
rfingers 7.12502
rthumb 37.8646 -47.1919
lclavicle -4.68138e-014 1.11319e-014
lhumerus -28.9487 -9.95578 102.864
lradius 45.7608
lwrist -7.68152
lhand -7.69603 14.6019
lfingers 7.12502
lthumb 18.2013 43.7704
rfemur -13.3532 3.07467 16.9988
rtibia 25.0209
rfoot -14.916 2.02633
rtoes -11.8394
lfemur -2.75079 -0.0332344 -20.2062
ltibia 45.9316
lfoot -16.0173 21.938
ltoes -8.50174
354
root -4.8555 17.6308 8.75796 31.6223 84.3787 389.528
lowerback 0.524712 -3.74259 5.30823
upperback -1.37925 -4.86357 1.47756
thorax -2.02862 -2.48224 -1.31575
lowerneck -2.33627 7.36389 -2.43948
upperneck -3.36819 9.9601 2.35688
head -0.903737 5.00546 1.09432
rclavicle -6.60959e-015 3.18055e-015
rhumerus -37.9583 -9.90012 -82.8364
rradius 32.8284
rwrist 27.3157
rhand 12.4787 -21.3938
rfingers 7.12502
rthumb 37.4734 -47.3344
lclavicle -6.60959e-015 3.18055e-015
lhumerus -29.0368 -10.2104 102.888
lradius 46.9238
lwrist -6.68563
lhand -7.71145 14.8224
lfingers 7.12502
lthumb 18.1865 43.9922
rfemur -12.641 3.42039 16.7347
rtibia 24.9146
rfoot -15.3622 1.62114
rtoes -11.7635
lfemur -3.46226 0.272742 -20.5495
ltibia 45.9347
lfoot -17.3374 22.9269
ltoes -8.95044
355
root -4.77171 17.6322 8.78116 32.6146 84.5128 390.592
lowerback 0.707763 -3.66466 5.6217
upperback -1.30084 -4.74502 1.44826
thorax -2.07176 -2.42709 -1.51242
lowerneck -2.38191 7.31355 -2.32302
upperneck -3.44276 9.88885 2.14523
head -0.899267 4.97071 1.01156
rclavicle 5.04416e-015 1.43125e-014
rhumerus -37.4418 -9.19629 -83.4476
rradius 33.526
rwrist 26.7519
rhand 12.6625 -21.2292
rfingers 7.12502
rthumb 37.6471 -47.1236
lclavicle 5.04416e-015 1.43125e-014
lhumerus -28.9685 -10.5859 102.982
lradius 47.782
lwrist -5.62138
lhand -8.01497 14.7333
lfingers 7.12502
lthumb 17.8944 43.93
rfemur -12.1334 3.95225 16.7621
rtibia 24.8518
rfoot -15.799 1.04634
rtoes -11.6837
lfemur -4.33563 0.481038 -20.635
ltibia 45.8089
lfoot -18.1941 24.2028
ltoes -9.01475
356
root -4.68856 17.6281 8.80822 33.9757 84.5439 392.093
lowerback 0.95718 -3.59439 5.70465
upperback -1.21299 -4.63535 1.45187
thorax -2.11991 -2.37288 -1.5452
lowerneck -2.36723 7.3393 -2.32134
upperneck -3.57471 9.92342 2.01037
head -0.935934 4.98944 0.966228
rclavicle 4.43041e-014 2.54444e-014
rhumerus -36.9341 -8.40811 -84.0425
rradius 34.1825
rwrist 25.7989
rhand 12.414 -21.2235
rfingers 7.12502
rthumb 37.4122 -47.1803
lclavicle 4.43041e-014 2.54444e-014
lhumerus -28.8292 -10.4813 102.99
lradius 48.4733
lwrist -4.834
lhand -8.02114 14.5573
lfingers 7.12502
lthumb 17.8885 43.7546
rfemur -11.59 4.44347 16.7418
rtibia 24.8571
rfoot -16.301 0.479486
rtoes -11.7451
lfemur -5.12247 0.806161 -20.7784
ltibia 45.5684
lfoot -19.0419 25.2543
ltoes -9.2753
357
root -4.60623 17.6152 8.83272 35.7254 84.6127 393.958
lowerback 1.10892 -3.52991 5.78832
upperback -1.09819 -4.54064 1.47485
thorax -2.08462 -2.3235 -1.56634
lowerneck -2.42693 7.32866 -2.27164
upperneck -3.64295 9.907 1.81982
head -0.933401 4.983 0.901184
rclavicle 1.87355e-014 -4.77083e-015
rhumerus -36.3513 -7.85792 -84.4104
rradius 34.7604
rwrist 25.2559
rhand 12.5412 -20.8364
rfingers 7.12502
rthumb 37.5324 -46.7613
lclavicle 1.87355e-014 -4.77083e-015
lhumerus -28.6905 -10.4464 103.04
lradius 49.1646
lwrist -4.13019
lhand -8.1187 14.5895
lfingers 7.12502
lthumb 17.7946 43.7953
rfemur -11.07 4.22291 16.7395
rtibia 24.8606
rfoot -16.7064 0.381797
rtoes -12.3812
lfemur -5.92335 1.0374 -20.9391
ltibia 45.2327
lfoot -19.6788 26.3121
ltoes -8.74436
358
root -4.52475 17.6071 8.85648 38.5876 84.6733 396.944
lowerback 1.31456 -3.47684 5.79434
upperback -1.02581 -4.45845 1.45203
thorax -2.12166 -2.28241 -1.58597
lowerneck -2.40613 7.31439 -2.23598
upperneck -3.73682 9.88551 1.66768
head -0.955091 4.97342 0.846408
rclavicle 8.6521e-014 -1.43125e-014
rhumerus -35.8908 -7.35746 -84.74
rradius 35.411
rwrist 24.7262
rhand 12.25 -20.6369
rfingers 7.12502
rthumb 37.2571 -46.6344
lclavicle 8.6521e-014 -1.43125e-014
lhumerus -28.5417 -10.3536 103.032
lradius 49.6338
lwrist -3.40883
lhand -8.33108 14.5677
lfingers 7.12502
lthumb 17.5902 43.792
rfemur -10.6135 3.96671 16.6109
rtibia 24.9555
rfoot -17.1328 0.435089
rtoes -12.4605
lfemur -6.74744 1.18357 -21.2346
ltibia 44.8145
lfoot -19.9097 27.3264
ltoes -8.88666
359
root -4.44241 17.6048 8.87672 40.4808 84.6483 398.868
lowerback 1.41917 -3.36827 5.84242
upperback -0.962826 -4.30755 1.44981
thorax -2.10826 -2.20631 -1.61741
lowerneck -2.40057 7.28784 -2.22405
upperneck -3.83315 9.84809 1.50556
head -0.975428 4.95653 0.79314
rclavicle -8.63719e-014 4.45278e-014
rhumerus -35.3334 -6.74459 -85.0644
rradius 35.9668
rwrist 23.6654
rhand 12.4433 -21.3248
rfingers 7.12502
rthumb 37.4398 -47.2743
lclavicle -8.63719e-014 4.45278e-014
lhumerus -28.345 -10.253 103.001
lradius 49.8363
lwrist -3.02455
lhand -8.32033 14.277
lfingers 7.12502
lthumb 17.6006 43.5004
rfemur -10.338 3.64984 16.4897
rtibia 25.1398
rfoot -17.5049 0.678733
rtoes -12.3924
lfemur -7.61745 1.39425 -21.4855
ltibia 44.3
lfoot -20.7124 27.9821
ltoes -8.24666
360
root -4.3657 17.5991 8.89939 41.5288 84.7781 399.87
lowerback 1.55105 -3.28974 5.9978
upperback -0.936275 -4.18751 1.50655
thorax -2.15351 -2.14778 -1.64308
lowerneck -2.57327 7.28968 -2.141
upperneck -3.72851 9.84785 1.37493
head -0.90248 4.95722 0.749695
rclavicle -5.58088e-014 1.74931e-014
rhumerus -34.8408 -6.46146 -85.277
rradius 36.5077
rwrist 23.1063
rhand 11.7271 -21.2672
rfingers 7.12502
rthumb 36.7625 -47.3926
lclavicle -5.58088e-014 1.74931e-014
lhumerus -28.123 -10.062 102.964
lradius 50.1413
lwrist -2.34907
lhand -8.32704 14.645
lfingers 7.12502
lthumb 17.5941 43.8689
rfemur -10.2065 3.41307 16.5824
rtibia 25.4004
rfoot -17.8222 0.716423
rtoes -12.883
lfemur -8.63605 1.63636 -21.5465
ltibia 43.7163
lfoot -21.1963 28.5199
ltoes -8.20117
361
root -4.28382 17.5937 8.92155 44.66 84.7241 403.028
lowerback 1.64132 -3.18871 5.89826
upperback -0.876842 -4.05313 1.46458
thorax -2.12854 -2.07867 -1.63458
lowerneck -2.64225 7.24736 -2.02712
upperneck -3.71917 9.78933 1.30101
head -0.876983 4.92776 0.712684
rclavicle -1.28216e-014 -1.27222e-014
rhumerus -34.33 -6.21671 -85.4332
rradius 36.9566
rwrist 22.7134
rhand 11.8371 -21.0353
rfingers 7.12502
rthumb 36.8666 -47.1341
lclavicle -1.28216e-014 -1.27222e-014
lhumerus -27.9258 -9.84315 102.855
lradius 50.1719
lwrist -2.32963
lhand -8.32213 14.6165
lfingers 7.12502
lthumb 17.5989 43.8399
rfemur -9.98232 3.00891 16.3699
rtibia 25.6636
rfoot -18.1729 0.920577
rtoes -12.9553
lfemur -9.53274 1.75765 -21.9104
ltibia 43.0958
lfoot -21.8908 28.7582
ltoes -8.27402
